<?xml version="1.0" standalone="no"?>
<svg xmlns:xlink="http://www.w3.org/1999/xlink" id="wave" style="transform:rotate(0deg); transition: 0.3s" viewBox="0 0 1440 270" version="1.1" xmlns="http://www.w3.org/2000/svg"><defs><linearGradient id="sw-gradient-0" x1="0" x2="0" y1="1" y2="0"><stop stop-color="rgba(0, 34, 51, 1)" offset="0%"/><stop stop-color="rgba(0, 34, 51, 1)" offset="100%"/></linearGradient></defs><path style="transform:translate(0, 0px); opacity:1" fill="url(#sw-gradient-0)" d="M0,27L24,40.5C48,54,96,81,144,76.5C192,72,240,36,288,18C336,0,384,0,432,18C480,36,528,72,576,99C624,126,672,144,720,139.5C768,135,816,108,864,103.5C912,99,960,117,1008,135C1056,153,1104,171,1152,153C1200,135,1248,81,1296,49.5C1344,18,1392,9,1440,18C1488,27,1536,54,1584,81C1632,108,1680,135,1728,144C1776,153,1824,144,1872,153C1920,162,1968,189,2016,207C2064,225,2112,234,2160,225C2208,216,2256,189,2304,171C2352,153,2400,144,2448,130.5C2496,117,2544,99,2592,112.5C2640,126,2688,171,2736,166.5C2784,162,2832,108,2880,76.5C2928,45,2976,36,3024,49.5C3072,63,3120,99,3168,117C3216,135,3264,135,3312,144C3360,153,3408,171,3432,180L3456,189L3456,270L3432,270C3408,270,3360,270,3312,270C3264,270,3216,270,3168,270C3120,270,3072,270,3024,270C2976,270,2928,270,2880,270C2832,270,2784,270,2736,270C2688,270,2640,270,2592,270C2544,270,2496,270,2448,270C2400,270,2352,270,2304,270C2256,270,2208,270,2160,270C2112,270,2064,270,2016,270C1968,270,1920,270,1872,270C1824,270,1776,270,1728,270C1680,270,1632,270,1584,270C1536,270,1488,270,1440,270C1392,270,1344,270,1296,270C1248,270,1200,270,1152,270C1104,270,1056,270,1008,270C960,270,912,270,864,270C816,270,768,270,720,270C672,270,624,270,576,270C528,270,480,270,432,270C384,270,336,270,288,270C240,270,192,270,144,270C96,270,48,270,24,270L0,270Z"/></svg>