<svg id="visual" viewBox="0 0 900 600" width="900" height="600" xmlns="http://www.w3.org/2000/svg" xmlns:xlink="http://www.w3.org/1999/xlink" version="1.1"><path d="M0 162L18.8 151.8C37.7 141.7 75.3 121.3 112.8 131.3C150.3 141.3 187.7 181.7 225.2 201.7C262.7 221.7 300.3 221.3 337.8 213.7C375.3 206 412.7 191 450.2 164.8C487.7 138.7 525.3 101.3 562.8 77.8C600.3 54.3 637.7 44.7 675.2 56C712.7 67.3 750.3 99.7 787.8 103C825.3 106.3 862.7 80.7 881.3 67.8L900 55L900 0L881.3 0C862.7 0 825.3 0 787.8 0C750.3 0 712.7 0 675.2 0C637.7 0 600.3 0 562.8 0C525.3 0 487.7 0 450.2 0C412.7 0 375.3 0 337.8 0C300.3 0 262.7 0 225.2 0C187.7 0 150.3 0 112.8 0C75.3 0 37.7 0 18.8 0L0 0Z" fill="#002233" stroke-linecap="round" stroke-linejoin="miter"></path></svg>